<svg width="18" height="18" viewBox="0 0 18 18" fill="none" xmlns="http://www.w3.org/2000/svg">
<path d="M10.4971 9.00015L17.6895 1.80777C18.1035 1.39378 18.1035 0.724632 17.6895 0.310644C17.2755 -0.103345 16.6064 -0.103345 16.1924 0.310644L9.00002 7.50303L1.80761 0.310644C1.39362 -0.103345 0.724479 -0.103345 0.310491 0.310644C-0.103497 0.724632 -0.103497 1.39378 0.310491 1.80777L7.50286 9.00015L0.310491 16.1925C-0.103497 16.6065 -0.103497 17.2757 0.310491 17.6897C0.516957 17.8961 0.788004 17.9999 1.05905 17.9999C1.3301 17.9999 1.60114 17.8961 1.80761 17.6897L8.99998 10.4973L16.1924 17.6897C16.3988 17.8961 16.6699 17.9999 16.9409 17.9999C17.212 17.9999 17.483 17.8961 17.6895 17.6897C18.1035 17.2757 18.1035 16.6065 17.6895 16.1925L10.4971 9.00015Z" fill="#7F56D9"/>
</svg>
