<svg width="26" height="34" viewBox="0 0 26 34" fill="none" xmlns="http://www.w3.org/2000/svg">
<path d="M4.70865 0H16.0848L25.7146 10.0469V29.577C25.7146 32.02 23.7345 34 21.2916 34H4.70865C2.26566 34 0.285645 32.0199 0.285645 29.577V4.42301C0.285645 1.98006 2.26566 0 4.70865 0V0Z" fill="#069AFC"/>
<path opacity="0.302" fill-rule="evenodd" clip-rule="evenodd" d="M16.0713 0V9.9644H25.7149L16.0713 0Z" fill="white"/>
<path d="M4.39258 24.2603V18.6318H6.38639C6.78513 18.6318 7.15642 18.6914 7.50018 18.8014C7.84394 18.916 8.1556 19.081 8.43522 19.301C8.7148 19.521 8.93484 19.8144 9.09525 20.181C9.25565 20.5477 9.33818 20.9694 9.33818 21.446C9.33818 21.9227 9.25565 22.3444 9.09525 22.7111C8.93484 23.0777 8.7148 23.3711 8.43522 23.5911C8.15565 23.8111 7.84394 23.9761 7.50018 24.0907C7.15642 24.2007 6.78517 24.2603 6.38639 24.2603H4.39258ZM5.7997 23.0365H6.21678C6.44137 23.0365 6.65222 23.009 6.84012 22.9586C7.03262 22.9036 7.20677 22.8165 7.37178 22.7019C7.53678 22.5873 7.6651 22.4223 7.75677 22.2069C7.85305 21.996 7.89884 21.7394 7.89884 21.446C7.89884 21.1527 7.853 20.896 7.75677 20.6806C7.6651 20.4698 7.53678 20.3048 7.37178 20.1902C7.20677 20.071 7.03262 19.9885 6.84012 19.9335C6.65222 19.8831 6.44137 19.8556 6.21678 19.8556H5.7997V23.0365ZM12.7528 24.3245C11.9049 24.3245 11.2036 24.0494 10.649 23.504C10.0944 22.9586 9.8194 22.2711 9.8194 21.4461C9.8194 20.6211 10.0944 19.9335 10.649 19.3881C11.2036 18.8427 11.9049 18.5677 12.7528 18.5677C13.587 18.5677 14.2791 18.8427 14.8337 19.3881C15.3837 19.9336 15.6587 20.6211 15.6587 21.4461C15.6587 22.2711 15.3837 22.9586 14.8337 23.504C14.2791 24.0494 13.587 24.3245 12.7528 24.3245ZM11.6711 22.6332C11.9507 22.9448 12.3082 23.1007 12.7436 23.1007C13.179 23.1007 13.532 22.9448 13.8116 22.6332C14.0911 22.3169 14.2287 21.9227 14.2287 21.446C14.2287 20.9694 14.0911 20.5752 13.8116 20.2589C13.532 19.9473 13.179 19.7914 12.7436 19.7914C12.3082 19.7914 11.9507 19.9473 11.6711 20.2589C11.3915 20.5752 11.2494 20.9694 11.2494 21.446C11.2494 21.9227 11.3915 22.3169 11.6711 22.6332ZM19.0046 24.3245C18.1842 24.3245 17.5012 24.0678 16.9604 23.5636C16.415 23.0549 16.1446 22.349 16.1446 21.446C16.1446 20.5477 16.4196 19.8418 16.9696 19.3331C17.5242 18.8243 18.198 18.5676 19.0047 18.5676C19.7334 18.5676 20.3293 18.7464 20.8014 19.1085C21.2689 19.466 21.5393 19.9427 21.6081 20.5385L20.1872 20.8273C20.1276 20.5156 19.9855 20.2635 19.7655 20.0756C19.5455 19.8876 19.2888 19.7914 18.9955 19.7914C18.5921 19.7914 18.2575 19.9335 17.9871 20.2222C17.7167 20.5156 17.5792 20.9189 17.5792 21.446C17.5792 21.9731 17.7167 22.3764 17.9825 22.6652C18.2529 22.9585 18.5875 23.1007 18.9954 23.1007C19.2887 23.1007 19.5409 23.0182 19.7471 22.8532C19.9534 22.6882 20.0817 22.4682 20.1367 22.1931L21.5897 22.5232C21.4568 23.0915 21.1634 23.5315 20.7051 23.8478C20.2513 24.1641 19.683 24.3245 19.0046 24.3245Z" fill="white"/>
</svg>
