<svg width="18" height="18" viewBox="0 0 18 18" fill="none" xmlns="http://www.w3.org/2000/svg">
<path fill-rule="evenodd" clip-rule="evenodd" d="M0.692308 0C1.07466 0 1.38462 0.309957 1.38462 0.692308V3.57203C1.6562 3.29523 1.97144 3.00111 2.33051 2.70695C3.8021 1.50141 6.02899 0.281612 9 0.281612C13.988 0.281612 18 4.23836 18 9.14081C18 14.0447 13.9594 18 9 18C4.04064 18 0 14.0447 0 9.14081C0 8.75846 0.309957 8.4485 0.692308 8.4485C1.07466 8.4485 1.38462 8.75846 1.38462 9.14081C1.38462 13.2578 4.78294 16.6154 9 16.6154C13.2171 16.6154 16.6154 13.2578 16.6154 9.14081C16.6154 5.02236 13.2428 1.66623 9 1.66623C6.43255 1.66623 4.50559 2.71501 3.20796 3.77805C2.76738 4.13897 2.40155 4.49995 2.11094 4.81877H4.98933C5.37168 4.81877 5.68163 5.12873 5.68163 5.51108C5.68163 5.89343 5.37168 6.20339 4.98933 6.20339H0.692308C0.309957 6.20339 0 5.89343 0 5.51108V0.692308C0 0.309957 0.309957 0 0.692308 0Z" fill="#6941C6"/>
</svg>
