<svg width="100" height="100" viewBox="0 0 100 100" fill="none" xmlns="http://www.w3.org/2000/svg">
<path d="M22.6562 10.9375C16.2046 10.9375 10.9375 16.2046 10.9375 22.6562C10.9375 29.1079 16.2046 34.375 22.6562 34.375H84.375V84.375H22.6562C18.7204 84.375 15.625 81.2796 15.625 77.3438V36.7188C15.6294 36.4082 15.572 36.0998 15.4562 35.8116C15.3404 35.5234 15.1684 35.2611 14.9504 35.0399C14.7323 34.8187 14.4724 34.6431 14.1859 34.5232C13.8994 34.4034 13.5918 34.3416 13.2812 34.3416C12.9706 34.3416 12.6631 34.4034 12.3766 34.5232C12.09 34.6431 11.8302 34.8187 11.6121 35.0399C11.394 35.2611 11.2221 35.5234 11.1063 35.8116C10.9905 36.0998 10.9331 36.4082 10.9375 36.7188V77.3438C10.9375 83.7954 16.2046 89.0625 22.6562 89.0625H86.7187C87.3403 89.0624 87.9364 88.8155 88.3759 88.376C88.8155 87.9364 89.0624 87.3403 89.0625 86.7188V32.0312C89.0624 31.4097 88.8155 30.8136 88.3759 30.374C87.9364 29.9345 87.3403 29.6876 86.7187 29.6875H22.6562C18.7204 29.6875 15.625 26.5921 15.625 22.6562C15.625 18.7204 18.7204 15.625 22.6562 15.625H75V24.2188C74.9956 24.5293 75.053 24.8377 75.1688 25.1259C75.2846 25.4141 75.4565 25.6764 75.6746 25.8976C75.8927 26.1188 76.1525 26.2944 76.4391 26.4143C76.7256 26.5341 77.0331 26.5959 77.3437 26.5959C77.6543 26.5959 77.9618 26.5341 78.2484 26.4143C78.5349 26.2944 78.7948 26.1188 79.0129 25.8976C79.2309 25.6764 79.4029 25.4141 79.5187 25.1259C79.6345 24.8377 79.6919 24.5293 79.6875 24.2188V13.2812C79.6874 12.6597 79.4405 12.0636 79.0009 11.624C78.5614 11.1845 77.9653 10.9376 77.3437 10.9375H22.6562Z" fill="#FC401A"/>
<path d="M50 65.625C45.1927 65.625 40.7256 67.1857 37.1124 69.8242C36.8514 70.0005 36.6285 70.2276 36.4572 70.492C36.2859 70.7564 36.1696 71.0525 36.1153 71.3628C36.061 71.6731 36.0699 71.9912 36.1413 72.298C36.2127 72.6048 36.3452 72.8941 36.5309 73.1486C36.7166 73.403 36.9517 73.6174 37.2221 73.779C37.4926 73.9406 37.7928 74.0459 38.1049 74.0889C38.417 74.1318 38.7345 74.1114 39.0385 74.0288C39.3425 73.9463 39.6268 73.8033 39.8743 73.6084C42.7155 71.5336 46.2031 70.3125 50 70.3125C53.7969 70.3125 57.2845 71.5336 60.1257 73.6084C60.3732 73.8033 60.6575 73.9463 60.9615 74.0288C61.2655 74.1114 61.583 74.1318 61.8951 74.0889C62.2072 74.0459 62.5074 73.9406 62.7779 73.779C63.0483 73.6174 63.2834 73.403 63.4691 73.1486C63.6548 72.8941 63.7873 72.6048 63.8587 72.298C63.9301 71.9912 63.939 71.6731 63.8847 71.3628C63.8304 71.0525 63.7141 70.7564 63.5428 70.492C63.3715 70.2276 63.1486 70.0005 62.8876 69.8242C59.2744 67.1857 54.8073 65.625 50 65.625Z" fill="#FC401A"/>
<path d="M58.0312 48.7077C57.5988 49.1537 57.3613 49.7531 57.3706 50.3742C57.3799 50.9952 57.6353 51.5872 58.0808 52.0201L59.1856 53.125L58.0808 54.2298C57.8581 54.4463 57.6806 54.7049 57.5587 54.9906C57.4368 55.2763 57.3729 55.5834 57.3707 55.894C57.3685 56.2046 57.4281 56.5125 57.5459 56.7999C57.6638 57.0873 57.8375 57.3483 58.0572 57.568C58.2768 57.7876 58.5379 57.9614 58.8253 58.0792C59.1127 58.1971 59.4206 58.2567 59.7312 58.2545C60.0418 58.2523 60.3489 58.1884 60.6346 58.0665C60.9202 57.9446 61.1788 57.7671 61.3954 57.5444L62.5002 56.4395L63.6051 57.5444C63.8216 57.7671 64.0802 57.9445 64.3659 58.0665C64.6515 58.1884 64.9586 58.2523 65.2692 58.2545C65.5798 58.2567 65.8877 58.1971 66.1751 58.0792C66.4625 57.9614 66.7236 57.7876 66.9432 57.568C67.1629 57.3483 67.3366 57.0872 67.4545 56.7999C67.5723 56.5125 67.6319 56.2046 67.6297 55.894C67.6275 55.5834 67.5636 55.2763 67.4417 54.9906C67.3198 54.7049 67.1423 54.4463 66.9196 54.2298L65.8148 53.125L66.9196 52.0201C67.1423 51.8036 67.3198 51.545 67.4417 51.2593C67.5636 50.9736 67.6275 50.6666 67.6297 50.356C67.6319 50.0454 67.5723 49.7374 67.4545 49.45C67.3366 49.1627 67.1629 48.9016 66.9432 48.6819C66.7236 48.4623 66.4625 48.2885 66.1751 48.1707C65.8877 48.0528 65.5798 47.9933 65.2692 47.9955C64.9586 47.9977 64.6515 48.0616 64.3659 48.1835C64.0802 48.3054 63.8216 48.4828 63.6051 48.7055L62.5002 49.8104L61.3954 48.7055C61.1767 48.4805 60.9151 48.3017 60.6261 48.1797C60.3371 48.0576 60.0265 47.9949 59.7128 47.9951C59.3991 47.9953 59.0886 48.0584 58.7997 48.1809C58.5108 48.3033 58.2495 48.4824 58.0312 48.7077Z" fill="#FC401A"/>
<path d="M33.0312 48.7077C32.5988 49.1537 32.3613 49.7531 32.3706 50.3742C32.3799 50.9952 32.6353 51.5872 33.0808 52.0201L34.1856 53.125L33.0808 54.2298C32.8581 54.4463 32.6806 54.7049 32.5587 54.9906C32.4368 55.2763 32.3729 55.5834 32.3707 55.894C32.3685 56.2046 32.4281 56.5125 32.5459 56.7999C32.6638 57.0873 32.8375 57.3483 33.0572 57.568C33.2768 57.7876 33.5379 57.9614 33.8253 58.0792C34.1127 58.1971 34.4206 58.2567 34.7312 58.2545C35.0418 58.2523 35.3489 58.1884 35.6345 58.0665C35.9202 57.9446 36.1788 57.7671 36.3953 57.5444L37.5002 56.4395L38.6051 57.5444C38.8216 57.7671 39.0802 57.9445 39.3659 58.0665C39.6515 58.1884 39.9586 58.2523 40.2692 58.2545C40.5798 58.2567 40.8877 58.1971 41.1751 58.0792C41.4625 57.9614 41.7236 57.7876 41.9432 57.568C42.1629 57.3483 42.3366 57.0872 42.4545 56.7999C42.5723 56.5125 42.6319 56.2046 42.6297 55.894C42.6275 55.5834 42.5636 55.2763 42.4417 54.9906C42.3198 54.7049 42.1423 54.4463 41.9196 54.2298L40.8148 53.125L41.9196 52.0201C42.1423 51.8036 42.3198 51.545 42.4417 51.2593C42.5636 50.9736 42.6275 50.6666 42.6297 50.356C42.6319 50.0454 42.5723 49.7374 42.4545 49.45C42.3366 49.1627 42.1628 48.9016 41.9432 48.6819C41.7236 48.4623 41.4625 48.2885 41.1751 48.1707C40.8877 48.0528 40.5798 47.9933 40.2692 47.9955C39.9586 47.9977 39.6515 48.0616 39.3659 48.1835C39.0802 48.3054 38.8216 48.4828 38.6051 48.7055L37.5002 49.8104L36.3953 48.7055C36.1767 48.4805 35.9151 48.3017 35.6261 48.1797C35.3371 48.0576 35.0265 47.9949 34.7128 47.9951C34.3991 47.9953 34.0886 48.0584 33.7997 48.1809C33.5108 48.3033 33.2495 48.4824 33.0312 48.7077Z" fill="#FC401A"/>
</svg>
