<svg width="156" height="156" viewBox="0 0 156 156" fill="none" xmlns="http://www.w3.org/2000/svg">
<circle cx="78" cy="78" r="78" fill="#06C270"/>
<path d="M23 37C23 28.1634 30.1634 21 39 21H121C129.837 21 137 28.1634 137 37V119C137 127.837 129.837 135 121 135H39C30.1634 135 23 127.837 23 119V37Z" fill="#06C270"/>
<path fill-rule="evenodd" clip-rule="evenodd" d="M106.123 56.3426C107.59 57.653 107.718 59.9051 106.407 61.3727L72.4789 99.3727C71.803 100.13 70.8363 100.563 69.8215 100.563C68.8066 100.563 67.8399 100.13 67.1641 99.3727L53.5926 84.1727C52.2822 82.7051 52.4097 80.453 53.8774 79.1426C55.345 77.8322 57.597 77.9597 58.9074 79.4274L69.8215 91.6511L101.093 56.6274C102.403 55.1597 104.655 55.0322 106.123 56.3426Z" fill="white"/>
</svg>
